<?xml version="1.0" encoding="UTF-8" standalone="no"?>
<svg
   xmlns:dc="http://purl.org/dc/elements/1.1/"
   xmlns:cc="http://creativecommons.org/ns#"
   xmlns:rdf="http://www.w3.org/1999/02/22-rdf-syntax-ns#"
   xmlns:svg="http://www.w3.org/2000/svg"
   xmlns="http://www.w3.org/2000/svg"
   xmlns:sodipodi="http://sodipodi.sourceforge.net/DTD/sodipodi-0.dtd"
   xmlns:inkscape="http://www.inkscape.org/namespaces/inkscape"
   version="1.0"
   width="1446.9333"
   height="784.73486"
   viewBox="0 0 14469.333 7847.3486"
   preserveAspectRatio="xMidYMid meet"
   id="svg22"
   sodipodi:docname="ASIN_revise.svg"
   inkscape:version="0.92.2 5c3e80d, 2017-08-06">
  <metadata
     id="metadata28">
    <rdf:RDF>
      <cc:Work
         rdf:about="">
        <dc:format>image/svg+xml</dc:format>
        <dc:type
           rdf:resource="http://purl.org/dc/dcmitype/StillImage" />
        <dc:title></dc:title>
      </cc:Work>
    </rdf:RDF>
  </metadata>
  <defs
     id="defs26" />
  <sodipodi:namedview
     pagecolor="#ffffff"
     bordercolor="#666666"
     borderopacity="1"
     objecttolerance="10"
     gridtolerance="10"
     guidetolerance="10"
     inkscape:pageopacity="0"
     inkscape:pageshadow="2"
     inkscape:window-width="640"
     inkscape:window-height="480"
     id="namedview24"
     showgrid="false"
     fit-margin-top="0"
     fit-margin-left="0"
     fit-margin-right="0"
     fit-margin-bottom="0"
     inkscape:zoom="0.2025"
     inkscape:cx="731.93331"
     inkscape:cy="429.50016"
     inkscape:window-x="531"
     inkscape:window-y="150"
     inkscape:window-maximized="0"
     inkscape:current-layer="svg22" />
  <path
     style="fill:#020202;stroke:none;stroke-width:1"
     d="m 10074.606,0.00319091 c -3.828,-0.025 -7.89,0.1016 -12.265,0.3516 -24,0.99999999 -52.008,5.99218999 -63.0079,11.99219009 -10,5 -26,7.00391 -35,4.00391 -10,-4 -22,0.9922 -30,11.99218 -8,11 -15,15.00391 -15,9.00391 0,-5 -8.008,4 -18.008,20 -25,40 -81.996,95.999999 -90.996,89.999999 -5,-2 -13.004,7 -19.004,20 -7,14 -16.988,24.0078 -22.988,23.0078 -7,-2 -25.012,16 -42.012,40 -16,24 -44.988,51 -62.988,60 -19,8 -34.004,22 -34.004,30 0,7 -18,29.9961 -40,50.9961 -22,20 -40,41.9922 -40,46.9922 0,6 -11,17.0039 -25,24.0039 -14,7 -25,16.9922 -25,21.9922 0,5 -52,60.0117 -115,122.0117 -63,62 -115,118.0039 -115,124.0039 0,11 -45.9961,60.9883 -105.9961,112.9883 -16,15 -56.9961,55 -90.9961,90 -115,118.00002 -168,169.00392 -175,169.00392 -12,0 -58.0078,47 -58.0078,60 0,7 -6.9961,9.9961 -15.9961,5.9961 -8,-3 -13,-1.9883 -10,2.0117 8,13 -23.9961,52.9961 -35.9961,45.9961 -7,-4 -8.0039,-1.9961 -4.0039,4.0039 4,6 -3.9961,15.9883 -15.9961,22.9883 -25,14 -48.0078,34.0039 -48.0078,44.0039 0,14 -30.9961,36.0039 -40.9961,29.0039 -7,-4 -9,-2.9961 -5,4.0039 3,6 -5.0039,19 -19.0039,30 -14,11 -25,24 -25,30 0,6 -5.9922,11.9844 -11.9922,13.9844 -7,3 -13.0078,13.0039 -13.0078,24.0039 0,12 -7.9922,20.0117 -21.9922,22.0117 -13,2 -23.0078,7.9883 -23.0078,12.9883 0,5 -7,9.0039 -15,9.0039 -8,0 -15,6.0039 -15,14.0039 0,7 -11,21 -25,30 -14,9 -22.0039,22 -19.0039,30 3,9 -2.9961,16.9961 -15.9961,20.9961 -12,4 -63,48.0078 -115,98.0078 -51,51 -116.0078,111.9922 -143.0078,136.9922 -28,25 -50.9961,49.9961 -50.9961,55.9961 -1,13 -89.9922,104.0039 -101.9922,104.0039 -5,0 -9.0039,8.0078 -9.0039,18.0078 -1,18 -42.9922,71.9922 -56.9922,71.9922 -20,0 -153.0078,171.9922 -153.0078,196.9922 0,8 -6.9922,10.0156 -16.9922,6.0156 -10,-3 -15.0156,-3.0078 -11.0156,1.9922 4,4 -5.9883,31.9961 -22.9883,60.9961 -16,30 -26.0117,54.0039 -22.0117,54.0039 4,0 2,4.9922 -5,11.9922 -7,7 -11.9922,20.0039 -11.9922,29.0039 0,10 -4.0039,18.9961 -9.0039,20.9961 -10,3 -18.0039,109.0039 -9.0039,124.0039 7,13 22.0156,85.0117 21.0156,107.0117 0,9 2.9922,16.9922 6.9922,16.9922 4,0 17.0078,19.0078 28.0078,43.0078 23,48 57.9883,93.9844 47.9883,63.9844 -3,-9.0001 -0.9961,-16.9923 4.0039,-16.9923 6,0 10,8.0039 10,19.0039 0,15 330.9961,360.9961 345.9961,360.9961 18,0 288.0039,255.0039 334.0039,314.0039 14,18 13.0078,18.9883 -1.9922,12.9883 -10,-3 -18.0078,-2.9883 -18.0078,2.0117 0,16 27.0039,31 44.0039,25 9,-3 15.9961,-2.0078 15.9961,1.9922 0,9 30,47 70,90 11,12 20,25.9961 20,30.9961 0,4 9,14.0156 20,21.0156 11,7 20,22.9922 20,36.9922 0,16 6,25 15,25 8,0 15,6.0039 15,14.0039 0,8 7,16 15,20 8,3 15,9.9961 15,15.9961 0,6 -4.9961,8.0039 -10.9961,4.0039 -20,-12 7.9961,29.9961 30.9961,45.9961 12,8 27.0039,29 34.0039,45 21,47 54.9922,116 81.9922,165 13,25 24.0039,58.0078 24.0039,73.0078 0,16 4.0039,25.9883 9.0039,22.9883 5,-3 13.9961,9.0117 20.9961,27.0117 7,17 15.9961,40.9922 20.9961,51.9922 5,11 10.0117,38 12.0117,60 3,22 9.9961,54 15.9961,70 13,31 25,117 25,170 -1,50 -22.0117,168.0039 -32.0117,174.0039 -5,3 -7.9961,14.9961 -5.9961,25.9961 5,31 -49.9961,135.0039 -100.9961,189.0039 -25,27 -45,51.9961 -45,55.9961 0,3 -18.9922,26.9922 -41.9922,51.9922 -24,26 -51,60.0117 -60,77.0117 -9,17 -28.0117,34.9961 -42.0117,40.9961 -14,5 -31.9961,20.0039 -40.9961,34.0039 -9,14 -29,27.9961 -45,30.9961 -16,3 -33.9961,12.9961 -40.9961,20.9961 -6,8 -17.0039,14.0039 -24.0039,14.0039 -6,0 -20,9 -30,20 -11,12 -35.9922,30.9922 -56.9922,41.9922 -21,12 -38.0078,25 -38.0078,30 0,4 -8.0039,8.0078 -19.0039,8.0078 -18,0 -69.9961,20 -100.9961,40 -24,15 -181,59.0039 -230,64.0039 -25,3 -61,9.9961 -80,15.9961 -19,6 -46.9922,8 -61.9922,5 -14,-4 -28.0156,-2.0078 -31.0156,1.9922 -3,5 -62.9883,8.0156 -132.9883,6.0156 -111,-2 -166.0039,-8.0078 -264.0039,-28.0078 -14,-3 -43,-7.0039 -65,-9.0039 -22,-3 -58,-11.9961 -80,-20.9961 -22,-10 -42,-16.9922 -45,-16.9922 -14,-1 -39.0078,-11.0078 -83.0078,-33.0078 -26,-14 -57,-25 -70,-25 -12,0 -39.9922,-11 -61.9922,-25 -22,-14 -47.9922,-27.9961 -56.9922,-30.9961 -10,-4 -18.0078,-12.0039 -18.0078,-19.0039 0,-8 -14.9922,-18.0039 -31.9922,-24.0039 -18,-6 -69.0078,-44.9922 -113.0078,-86.9922 l -80,-75.9961 58.0078,-52.0117 c 31,-29 56.9922,-55.0039 56.9922,-59.0039 0,-4 8.0078,-14.9961 18.0078,-25.9961 57,-61 71.9922,-81 71.9922,-95 0,-8 5,-17.9961 10,-20.9961 6,-3 10,-16.0078 10,-28.0078 0,-13 6.9961,-32.9961 15.9961,-45.9961 15,-21 14.9961,-24.0039 0.996,-39.0039 -12,-12 -19,-12.9844 -30,-3.9844 -8,7 -15.9844,8.9961 -18.9844,5.9961 -3,-2 -17.0156,8.9961 -31.0156,25.9961 -14,16 -29.9961,30 -35.9961,30 -6,0 -10.9961,3.0078 -10.9961,8.0078 0,12 -58.0039,71.9922 -69.0039,71.9922 -6,0 -8,6.0039 -5,14.0039 3,8 -7.9883,19.0039 -27.9883,29.0039 -17.9999,9 -28.0077,16.9922 -23.0077,16.9922 6,0 6,3.0078 0,8.0078 -6,4 -18.0078,19 -28.0078,35 -10,15 -21.9922,26.9922 -26.9922,26.9922 -17,0 -88.9961,64.9961 -105.9961,95.9961 -6,10 -20.0117,23.0039 -32.0117,29.0039 -12,5 -21.9922,14.0078 -21.9922,18.0078 0,12 -57.0039,66.9922 -69.0039,66.9922 -6,0 -10.9961,4.0039 -10.9961,9.0039 0,15 -52.9922,70.9961 -66.9922,70.9961 -7,0 -18,9.0039 -25,19.0039 -6,10 -17.0078,17.0039 -23.0078,14.0039 -7,-2 -15.0078,2.9961 -18.0078,10.9961 -4,9 -12.9961,15.9961 -20.9961,15.9961 -9,0 -19.9961,9 -25.9961,20 -6,11 -14.0078,19.0078 -18.0078,18.0078 -13,-2 -46.9961,15.9883 -70.9961,37.9883 -14,13 -27.9883,21.0078 -32.9883,18.0078 -4,-3 -8.0078,-1 -8.0078,5 0,6 -18,19.9961 -40,30.9961 -22,11 -45.9922,29 -51.9922,40 -7,11 -21,20 -30,20 -10,0 -18.0078,5 -18.0078,10 0,6 -6.0078,10 -13.0078,10 -8,0 -26.9883,13 -42.9883,30 -16,16 -33.0117,30 -37.0117,30 -5,0 -21.9883,8.9961 -37.9883,20.9961 -16,11 -29.0039,17.0117 -29.0039,12.0117 -1,-4 -10,2.9961 -20,15.9961 -11,13 -20,17.9961 -20,10.9961 0,-6 -5.9922,-9.9922 -11.9922,-6.9922 -7,2 -12,9.9961 -10,15.9961 1,7 -2.0117,9.9922 -7.0117,6.9922 -5,-3 -23.9922,8.0039 -41.9922,24.0039 -19,16 -36.9961,30 -40.9961,30 -4,0 -13.0117,7 -22.0117,15 -8,9 -30.9961,15.9922 -50.9961,16.9922 -19,1 -35,5 -35,10 0,4 -4.9961,8.0078 -10.9961,8.0078 -11,0 -67.0117,22.9961 -102.0117,40.9961 -10,5 -21.9922,7.0039 -26.9922,4.0039 -5,-3 -11.0039,-0.996 -14.0039,4.0039 -5,8 -48.9883,16.9961 -122.9883,25.9961 -11,2 -30.0156,6.0039 -41.0156,9.0039 -30,10 -171.9922,14.9961 -176.9922,5.9961 -2,-4 -27.0039,-10.0039 -54.0039,-14.0039 -28,-4 -52.9961,-10.9961 -55.9961,-15.9961 -3,-6 -17,-10 -30,-10 -12,0 -26.0039,-7 -29.0039,-15 -3,-9 -12,-15.0078 -20,-13.0078 -20,5 -131.9961,-97.9883 -165.9961,-152.9883 -16,-27 -39,-58.0039 -50,-69.0039 -11,-11 -20,-33 -20,-50 0,-18 -6,-32.9961 -15,-35.9961 -8,-4 -13,-10.0039 -10,-14.0039 3,-4 -1.9961,-11.0039 -10.9961,-14.0039 -12,-4 -14.0039,-13.9961 -9.0039,-35.9961 5,-22 2.9922,-31.9961 -8.0078,-35.9961 -9,-3 -17.9922,-25 -21.9922,-55 -4,-27 -11,-51.0039 -15,-54.0039 -4,-3 -6.0039,-16.9922 -4.0039,-31.9922 10,-76 10.0039,-78.0078 -10.9961,-78.0078 -17,0 -20.9922,-11 -31.9922,-95 -6,-52 -12.0156,-135 -11.0156,-185 0,-49 -0.992,-94 -1.9922,-100 -6,-26 -4.9922,-40.9922 3.0078,-51.9922 5,-6 7.9844,-31 8.9844,-55 0,-24 5,-48 10,-55 5,-7 7.0078,-17.0117 3.0078,-22.0117 -9,-16 33,-320.9961 50,-355.9961 8,-16 19,-64.0039 25,-104.0039 6,-41 15,-79.9961 20,-85.9961 6,-7 7.0078,-15.0078 3.0078,-18.0078 -3,-4 -1,-17 5,-30 6,-12 19.9922,-57.9922 31.9922,-101.9922 26,-102 29.0039,-114.0078 34.0039,-148.0078 2,-15 9.9961,-33.9922 15.9961,-41.9922 10,-12 10,-15 0,-15 -9,0 -7.9961,-6.0039 4.0039,-19.0039 17,-19 33.9961,-65.9961 40.9961,-115.9961 6,-41 38,-127.9922 50,-136.9922 5,-4 5.9961,-8.0078 0.996,-8.0078 -5,0 -2.9961,-7 4.0039,-15 7,-8 13.9961,-44.9922 15.9961,-81.9922 1,-36 8.0039,-69.0078 14.0039,-73.0078 6,-4 8.9922,-12.9961 6.9922,-20.9961 -2,-8 -2,-11.0117 0,-7.0117 7,13 32.0039,-17.9883 39.0039,-47.9883 3,-16 12.9961,-39.0117 20.9961,-52.0117 8,-13 15.0156,-40.9922 16.0156,-61.9922 1,-22 3.9883,-40 7.9883,-40 4,0 10.0039,-18.0039 14.0039,-39.0039 4,-22 12.9961,-44.9922 20.9961,-51.9922 8,-6 14.0039,-18 14.0039,-25 0,-8 4.0039,-22.0117 9.0039,-32.0117 5,-9 15.9883,-39 22.9883,-65 7,-27 22.0117,-57.9844 32.0117,-68.9844 14,-15 18.9922,-33.0039 16.9922,-59.0039 -1,-22 3.9961,-40.9961 10.9961,-45.9961 19,-12 38.0078,-49.0039 38.0078,-74.0039 0,-12 11.9961,-47.0078 25.9961,-78.0078 14,-31 32.0039,-68.9961 39.0039,-85.9961 8,-16 23.9961,-61 35.9961,-100 12,-38 26,-74.9961 30,-80.9961 5,-5 6.0078,-19 3.0078,-30 -3,-13 6,-33.0117 25,-57.0117 16,-21 31.9961,-55.9922 35.9961,-76.9922 4,-22 10,-40 15,-40 4,0 18.9922,-29 31.9922,-65 12,-36 26,-65 30,-65 5,0 8.0078,-9.0039 8.0078,-19.0039 0,-11 5,-22.9961 10,-25.9961 6,-3 10,-17.0039 10,-29.0039 0,-13 7,-28.9961 15,-35.9961 8,-7 15,-16.9922 15,-21.9922 0,-14 71,-172.0078 80,-178.0078 4,-3 11,-20.0039 15,-39.0039 6,-30 32.0039,-84.9961 54.0039,-115.9961 4,-5 13.0039,-28.9961 19.0039,-50.9961 7,-23 18.9883,-45.0078 27.9883,-48.0078 9,-3 14,-12.9961 10,-20.9961 -3,-8 1.0039,-21.0039 9.0039,-29.0039 8,-8 15,-19 15,-25 0,-13 19,-49.0039 40,-74.0039 8,-11 15,-24 15,-30 0,-12 36.0078,-86.9922 58.0078,-121.99216 60,-96 86.9922,-143.9922 86.9922,-156.9922 0,-8 8.0078,-24.0156 18.0078,-36.0156 20,-25 41,-51.9961 85,-110.9961 22,-31 45,-47.9883 75,-57.9883 42,-14 81.9922,-44.0156 81.9922,-61.0156 0,-18 33,-73.9844 45,-78.9844 8,-2 11.0078,-11 8.0078,-20 -10,-26 19,-61.0078 70,-83.0078 46,-20 51.9922,-20.9961 61.9922,-5.9961 7,9 13.9922,13.9961 16.9922,10.9961 2,-2 13.0039,-6.0078 24.0039,-8.0078 10,-2 39.0078,-13 63.0078,-25 25,-12 49.0039,-21.9922 54.0039,-21.9922 5,0 23.9883,-15.0039 42.9883,-34.0039 30,-30 34.0039,-39.9922 34.0039,-86.9922 0,-65 -20.9961,-128.007799 -45.9961,-143.007809 -11,-6 -48.0039,-15.99218 -84.0039,-21.99218 -62,-10 -65.9922,-9.9961 -96.9922,14.0039 -18,12.99999 -33.0078,30.98439 -33.0078,38.98439 0,7 -7,16.0039 -15,19.0039 -8,3.999999 -15,11.007799 -15,18.007799 0,6 -16,24.0039 -35,39.0039 -19,15 -35,22.9922 -35,16.9922 0,-5 -4,-10 -10,-10 -5,0 -7.0039,7 -4.0039,15 4,9 0,15 -9.0039,15 -8,0 -16.9961,7 -20.9961,15 -3,9 -11.9922,12.0078 -21.9922,8.0078 -12,-4 -15,-3 -10,5 4,8 0,11.9922 -10.9961,11.9922 -15,0 -16.0078,2 -3.0078,10 12,8 11.0039,10 -5.9961,10 -12,0 -35,7 -50,15 -16,8 -36.9961,15 -45.9961,15 -9,0 -20.0039,4.9961 -24.0039,10.9961 -3,6 -16.9961,8.9961 -30.9961,5.9961 -35,-7 -57.0078,30.0117 -48.0078,82.0117 6,39 6.0078,38.9922 -66.9922,101.9922 -40,34 -89.0039,79.0078 -109.0039,98.0078 -20,20 -47,45.9883 -60,57.9883 -13,12 -46.0117,44.0117 -72.0117,72.0117 -27,28 -52.9883,48 -57.9883,45 -5,-3 -9.0039,1.0039 -9.0039,9.0039 0,14 -44.0078,56.9922 -58.0078,56.9922 -5,0 -18.9922,11 -31.9922,25 -15,16 -29.9961,23 -40.9961,20 -14,-5 -20,1.0039 -25,19.0039 -3,14 -3.0039,30 0.996,35 3,6 0.01,10.9961 -6.9922,10.9961 -18,1 -108.0078,88.00386 -108.0078,104.00386 0,17 -26.0078,38.9922 -38.0078,31.9922 -5,-3 -50,35.0039 -100,84.0039 -49,50 -97.9922,90 -106.9922,90 -11,0 -14.9961,4.9961 -10.9961,15.9961 3,8 1.9961,12.0039 -4.0039,9.0039 -6,-3 -10,-1.9922 -10,3.0078 0,12 -64,81.9922 -75,81.9922 -14,1 -78.0039,90 -64.0039,90 22,0 2.0039,24.9961 -20.9961,25.9961 -13,1 -26.0078,7.0078 -28.0078,13.0078 -2,6 -9.9922,10.9961 -16.9922,10.9961 -8,0 -23,14 -35,30 -17,23 -18.9961,34.0039 -10.9961,44.0039 18,21 -9.0117,36.0039 -52.0117,29.0039 -25,-4 -36.9922,-2.0039 -36.9922,5.9961 0,7 -41,51.9961 -90,100.9961 -50,50 -87.9961,90 -85.9961,90 5,0 -154.0039,160 -194.0039,195 -30,27 -106,112.0039 -115,129.0039 -5,10 -28,28 -50,40 -22,11 -40.9922,24.0039 -41.9922,29.0039 -6.9998,23 -35.0076,66.9922 -43.0076,66.9922 -5,0 -16.9961,15.9961 -25.9961,35.9961 -11,22 -27.9961,39.9961 -45.9961,45.9961 -15,6 -26.0078,13.0078 -23.0078,18.0078 3,4 -2,13 -10,20 -8,7 -15,18.9922 -15,26.9922 0,10 -5.9961,13.0039 -15.9961,9.0039 -10,-4 -17.9961,0.01 -20.9961,13.0078 -3,11 -16.0039,22 -29.0039,25 -13,4 -24.0039,12.9922 -24.0039,21.9922 0,9 -12.0078,28.0078 -28.0078,43.0078 -48,48 -88,96.0039 -95,114.0039 -3,9 -12.9961,16.9922 -20.9961,16.9922 -17,0 -28.9961,27 -15.9961,35 6,4 15,3 20,0 6,-3 10,0.01 10,8.0078 0,15 -30.0039,31.9922 -74.0039,41.9922 -36,8 -75.9961,34.0039 -75.9961,49.0039 0,7 -17.0078,27.9883 -38.0078,47.9883 -58,58 -71.9922,74 -71.9922,85 0,6 -11,14.0117 -25,17.0117 -14,4 -25,13 -25,20 0,8 -13,23.9922 -30,36.9922 -27,22 -44,59.0039 -20,44.0039 6,-4 6.0039,4.0039 -0.996,19.0039 -7,15 -16.9961,22.0039 -25.9961,19.0039 -8,-3 -32.0039,12.9961 -59.0039,40.9961 -25,25 -50.9961,45.9961 -55.9961,45.9961 -6,0 -8.0156,17.9961 -6.0156,40.9961 4,40 3,41 -25,35 -28,-6 -28.9844,-3.9883 -23.9844,22.0117 5,24 1.9844,26.9844 -21.0156,28.9844 -36,2 -85.9922,14.0078 -91.9922,23.0078 -16,23 -120,61.9922 -205,76.9922 -16,3 -37,11.0078 -45,18.0078 -8,8 -26,13.0078 -40,13.0078 -79,0 -141.0039,40.9844 -154.0039,103.9844 -7,34 2,78.0078 15,78.0078 5,0 9.0039,8.0039 9.0039,19.0039 0,10 7,23.9961 15,30.9961 14,12 22.0078,11.0078 133.0078,-16.9922 27,-7 29.9883,15 2.9883,25 -11,4 -46,42.9922 -80,86.9922 -72,96 -71.9961,96 -100.9961,115 -33,22 -132,127.0078 -155,163.0078 -10,18 -24.9922,36 -31.9922,40 -7,4 -13.0078,13.9922 -13.0078,21.9922 0,8 -11.9922,26 -26.9922,40 -16,14 -28.0078,30.9922 -28.0078,36.9922 0,7 -8.0078,14.0156 -18.0078,16.0156 -23,5 -86.9922,70.9961 -86.9922,90.9961 0,8 -2.9961,12.0039 -5.9961,9.0039 -14,-15 -74.0039,63.9883 -74.0039,97.9883 0,20 -44.9961,64.0039 -65.9961,64.0039 -9,0 -17.9961,9 -20.9961,20 -3,11 -10,20 -15,20 -5,0 -6.0078,5 -3.0078,10 3,6 -1.0039,10 -9.0039,10 -9,0 -15.9961,4.9961 -15.9961,10.9961 0,11 -77.0078,89.0039 -88.0078,89.0039 -12,0 -33.9961,58.9961 -25.9961,70.9961 5,9 1.9961,9.9961 -9.0039,5.9961 -11,-4 -16.9922,-0.988 -16.9922,7.0117 0,8 -15.0039,23.9961 -34.0039,35.9961 -23,13 -39.9961,36.0039 -50.9961,64.0039 -13,33 -24.9922,45.9922 -51.9922,56.9922 -32,12 -54.0039,36.9961 -59.0039,65.9961 -1,7 -34.0078,44.0078 -73.0078,83.0078 -39,40 -70.9961,77.9961 -70.9961,85.9961 0,7 -9,18.0039 -20,24.0039 -11,6 -20,17 -20,25 0,8 -7,15 -15,15 -8,0 -15,5 -15,10 0,6 -4,10 -10,10 -13,0 -50,37 -50,50 0,5 -9,14 -20,20 -21,11 -44.9961,54.9922 -40.9961,76.9922 1,7 -8.0039,17.0078 -19.0039,23.0078 -11,6 -20,19 -20,30 0,12 -15,27.9922 -40,41.9922 -22,13 -40,30.0039 -40,39.0039 0,9 -31,51.9961 -70,95.9961 -38,44 -70,86.0117 -70,92.0117 0,6 -4.0078,10.9961 -8.0078,10.9961 -13,0 -56.9844,83.0078 -53.9844,103.0078 2,10 -3.0117,16.9922 -12.0117,16.9922 -9,0 -15.9961,4.9961 -15.9961,10.9961 0,6 -7,9 -15.00001,5 -12,-4 -15,4 -15,40 0,25 -4.0078,43 -8.0078,40 -5,-3 -21.9844,7.0117 -38.9844,22.0117 -17,15 -40.0117,34.9844 -52.0117,43.9844 -11,10 -36.9922,40.0078 -56.9922,68.0078 -20,27 -40.0039,50 -44.0039,50 -11,0 -31.0039,59.9922 -24.0039,71.9922 3,5 -10.9961,24.0078 -30.9961,43.0078 -31,30 -40.0039,50.0039 -44.0039,99.0039 -1,4 -7.0039,5.9883 -14.0039,2.9883 -18,-7 -38.9922,30.0039 -31.9922,54.0039 4,11 2,19.0039 -5,19.0039 -6,0 -15,11 -20,25 -5,14 -21,29.9922 -35,36.9922 -14,6 -25,15 -25,20 0,5 5,6.0078 10,3.0078 12,-7 12.0039,-2.9961 4.0039,19.0039 -3.0001,9 -14.004,15.9961 -24.004,15.9961 -11,0 -25,14.9961 -35,35.9961 -9,20 -34,53.0039 -55,74.0039 -27,27 -40.9922,51.9922 -46.9922,81.9922 -6,32 -14.0078,44.0156 -28.0078,46.0156 -28,4 -104,121.9883 -105,162.9883 0,8 -8.99609,25.0117 -20.99609,37.0117 -11,12 -18,25.9961 -15,30.9961 3,5 -3.00391,18.9961 -14.00391,30.9961 -11,13 -20,19.0039 -20,14.0039 -1,-11 -40,34.9922 -40,46.9922 0,5 7.99219,9.0039 16.99219,9.0039 13,0 10.00781,7 -11.99219,30 -16,17 -24.99219,30 -21.99219,30 4,0 2.99219,9 -3.00781,20 -8,15 -8.00781,20 1.99219,20 6,0 0,13.0078 -15,28.0078 -15,15 -29.988284,42 -32.988284,60 -4,18 -11,31.9922 -15,31.9922 -5,0 -14.9961,12.0078 -20.9961,28.0078 -7,15 -23,43.9844 -35,63.9844 -25.0000001,42 -30.0000001,74.0156 -10,81.0156 17,6 43.9961,-19.0078 50.9961,-48.0078 3,-13 14.99609,-27 25.99609,-30 11.000004,-4 17.996094,-10.0078 15.996094,-13.0078 -5,-9 16.00782,-39 28.00782,-40 6,-1 10.99218,-6.9844 11.99218,-13.9844 1,-7 18.00391,-40.0078 39.00391,-73.0078 20,-33 38.99219,-73.0078 41.99219,-88.0078 3,-15 14.0039,-31.9883 24.0039,-37.9883 11,-5 19.00391,-16.0078 19.00391,-23.0078 0,-18 20.00781,-55.9922 48.00781,-91.9922 12.99999,-16 43.99999,-65.9961 69.99999,-110.9961 27,-44 53.9922,-89.0078 61.9922,-98.0078 17,-20 35.0039,-50.9922 49.0039,-81.9922 6,-13 15,-23.0078 20,-23.0078 5,0 11,-7.9922 15,-16.9922 3,-10 23,-45.0078 45,-78.0078 22,-33 45,-69.9922 50,-81.9922 6,-13 14.0039,-23.0078 19.0039,-23.0078 5,0 16.9883,-16.9922 27.9883,-36.9922 10,-21 31,-49.0078 45,-63.0078 15,-14 34.9961,-41 45.9961,-60 38,-69 86,-140 95,-140 5,0 14.0039,-13 19.0039,-30 6,-16 15,-30 20,-30 5,0 12.9961,-7.9922 15.9961,-16.9922 4,-10 17.0039,-28.0039 29.0039,-39.0039 13,-12 20.0117,-25.0078 17.0117,-28.0078 -3,-3 1,-7.9922 10,-11.9922 9,-3 13.9961,-11.0117 10.9961,-17.0117 -2,-7 9,-25.9844 25.00001,-43.9844 15,-17 37.9961,-48.0117 50.9961,-67.0117 12,-20 27.0039,-42.0039 34.0039,-49.0039 6,-6 24.9961,-29.9922 40.9961,-51.9922 17,-22 34.9922,-46 41.9922,-55 7,-8 36,-44.9922 65,-81.9922 29,-37 64.0078,-83.0117 78.0078,-102.0117 14,-20 31.0078,-35.9961 38.0078,-35.9961 7,0 9.9922,-4 6.9922,-10 -5,-9 11.0078,-29.9922 78.0078,-101.9922 15,-17 26.9922,-34.0039 26.9922,-39.0039 0,-6 5,-15.0117 10,-22.0117 6,-7 26,-29.9922 45,-51.9922 19,-22 35,-45.9922 35,-51.9922 0,-7 7,-13.0078 15,-13.0078 8,0 15,-4.9922 15,-11.9922 0,-11 22.0078,-37.0078 78.0078,-93.0078 12,-12 21.9922,-26 21.9922,-30 0,-4 18,-24.9961 40,-45.9961 22,-22 40,-43.0117 40,-47.0117 0,-5 11,-14.9922 25,-21.9922 14,-7 25,-18.0078 25,-23.0078 0,-14 59.0078,-86.9883 103.0078,-127.9883 21,-21 37,-39 35,-40 -6,-7 64.9883,-78.0039 82.9883,-84.0039 11,-4 19.0039,-14.0039 19.0039,-24.0039 0,-10 11.0039,-30.0039 24.0039,-44.0039 13,-14 25.9922,-29.9961 26.9922,-35.9961 9,-25 125.0117,-148.9961 137.0117,-145.9961 7,3 11.9922,-4.0039 11.9922,-14.0039 0,-21 75.9922,-97.9883 91.9922,-92.9883 6,2 8,-4.0117 5,-12.0117 -4,-10 8.0078,-28.0039 33.0078,-49.0039 22,-19 40,-39 40,-45 0,-7 4.0039,-11.9922 9.0039,-11.9922 5,0 12.9961,-9 15.9961,-20 3,-11 12.9961,-20 20.9961,-20 8,0 14.0039,-7 14.0039,-15 0,-8 4.0039,-15 9.0039,-15 4,0 27.9922,-24.9961 51.9922,-55.9961 24,-31 56.0117,-68.0117 72.0117,-82.0117 15,-14 26.9922,-28.9844 26.9922,-33.9844 0,-12 72.0078,-74 83.0078,-70 4,1 5.9883,-2.0117 2.9883,-7.0117 -3,-5 9.0117,-25 27.0117,-45 17,-20 49.9922,-56.9922 71.9922,-81.9922 39,-45 165.9922,-179.9961 241.9922,-255.9961 20,-20 39.0117,-36 42.0117,-35 3,0 46.0039,-18.0156 94.0039,-41.0156 49,-23 91.9961,-41.9922 95.9961,-41.9922 5,0 13.9961,-7 20.9961,-15 6,-8 15.0078,-14.0078 18.0078,-13.0078 4,1 23.9961,-6 45.9961,-15 21,-9 43.9922,-16.9922 51.9922,-16.9922 7,0 16.0039,-5 19.0039,-10 4,-6 10,-8 15,-5 5,3 11.0039,0.996 14.0039,-4.0039 3,-5 21.9961,-12 40.9961,-15 19,-4 35,-11.9922 35,-16.9922 0,-6 9,-8.0039 20,-4.0039 11,3 20,2.0078 20,-1.9922 0,-5 27,-17.0117 60,-27.0117 33,-10 60,-21.9883 60,-27.9883 0,-5 4,-6.0078 10,-3.0078 5,3 23.9922,-0.01 41.9922,-8.0078 80,-35 87.0117,-35.9844 92.0117,-23.9844 3,7 5,5.9922 5,-3.0078 1,-21 96.9961,-64 185.9961,-85 38,-8 76,-22.0039 85,-29.0039 8,-7 30.9961,-16 50.9961,-20 19,-3 44,-14.0039 55,-24.0039 10,-10 27.0078,-15.9844 38.0078,-13.9844 10,2 37,-5.0156 60,-16.0156 22,-11 67.0039,-25.9883 99.0039,-32.9883 34,-7 63.9961,-19.9961 70.9961,-30.9961 7,-10 16.0039,-15.0156 19.0039,-11.0156 4,3 17,2.0156 30,-3.9844 26,-12 105,-34.0156 130,-36.0156 9,-1 16.9922,-6.9844 16.9922,-13.9844 0,-7 10.0078,-13.0078 23.0078,-13.0078 39,0 66.9922,-11.9922 66.9922,-26.9922 0,-9 6.0039,-13 14.0039,-10 7,3 19,-0.02 25,-6.0156 8,-8 10.9961,-7.9844 10.9961,1.0156 0,6 7,8.9961 15,5.9961 22,-9 19,40.9961 -5,90.9961 -18,37 -18.0078,40.9922 -3.0078,51.9922 15,12 15.0039,15.0117 -5.9961,37.0117 -15,16 -22.0039,36.9922 -24.0039,71.9922 -2,43 -5,49.0117 -25,52.0117 -12,2 -19.9922,7.9883 -16.9922,12.9883 4,5 2.0078,9.0039 -1.9922,9.0039 -13,0 -46.0039,98 -39.0039,115 3,8 -1.9961,19.0039 -10.9961,24.0039 -14,7 -15,12.0039 -5,24.0039 10,12 9.9922,15.9961 -3.0078,20.9961 -8,3 -15,14 -15,25 0,11 -5,22.9961 -10,25.9961 -6,4 -8.0039,10.9961 -4.0039,15.9961 3,6 -1.9883,18.0117 -12.9883,27.0117 -20,19 -24,29.9922 -30,81.9922 -3,19 -7,42 -10,50 -3,8 -7.0039,21.0078 -9.0039,28.0078 -1,8 -10.0039,21.9922 -19.0039,31.9922 -9,10 -19,33.9922 -20,51.9922 -6,55 -20.9922,122.0078 -31.9922,143.0078 -6,11 -14.0078,38.9922 -18.0078,61.9922 -4,24 -10.9961,45.0039 -15.9961,49.0039 -5,3 -9.0039,20.0117 -9.0039,37.0117 0,44 -9.9961,77.9961 -20.9961,70.9961 -8,-5 -11.0078,15.0039 -13.0078,89.0039 -1,12 -6.9883,28 -12.9883,35 -7,7 -13.0078,24.9883 -13.0078,37.9883 0,14 -4.9961,34.9961 -10.9961,45.9961 -6,12 -11.9961,46 -10.9961,75 0,33 -5.0117,56.0039 -12.0117,59.0039 -7,3 -10.9883,17.0078 -7.9883,33.0078 2,16 -1.0117,38 -7.0117,50 -6,11 -12.9961,63.9961 -15.9961,115.9961 -3,53 -7,100 -10,105 -14,23 -18.0039,161 -9.0039,310 4,58 5.9961,127 5.9961,155 -1,27 3.0078,54 8.0078,60 5,6 11.0039,35 14.0039,65 7,78 36,178.0039 60,209.0039 6,8 10.9922,21 11.9922,30 2,35 18.0117,78 42.0117,105 13,17 27.9883,39.9883 32.9883,52.9883 5,13 16.0039,23.0078 24.0039,23.0078 9,0 13,4.9961 10,10.9961 -4,6 0.992,13 11.9922,15 10,3 23.0078,14.9961 28.0078,25.9961 6,12 18.0039,26.0117 29.0039,32.0117 38,23 77,65.9922 70,76.9922 -4,8 -3,9 5,5 6,-4 13.9922,0.01 16.9922,8.0078 3,9 12,15.9961 20,15.9961 8,0 14.0039,5 14.0039,10 0,6 5,10 10,10 10,0 143.0078,58.9961 183.0078,80.9961 10,5 21.9922,7.0039 26.9922,4.0039 6,-4 10,-1.9922 10,3.0078 0,11 52,14.9844 185,13.9844 108,0 309.0039,-36.9961 339.0039,-60.9961 9,-7 15.9961,-10 15.9961,-5 0,4 4.9961,3.0117 10.9961,-2.9883 6,-6 18,-9.0156 25,-6.0156 8,3 14.0039,1.0117 14.0039,-2.9883 0,-9 35,-27.0039 80,-39.0039 14,-4 27,-11 30,-15 3,-4 38.0078,-26.9961 78.0078,-50.9961 41,-24 90,-53.9961 110,-65.9961 21,-13 56,-32.0078 80,-43.0078 23,-12 41.9922,-25 41.9922,-30 0,-6 4.9961,-10 10.9961,-10 6,0 36.0078,-22 68.0078,-50 32,-27 63,-50 70,-50 14,0 57.9922,-27.9922 81.9922,-51.9922 10,-9 33.0117,-24.0078 52.0117,-33.0078 19,-9 55,-35.0078 80,-58.0078 25,-23 73.9844,-63.9922 108.9844,-91.9922 35,-27 79.0078,-66.9922 98.0078,-86.9922 19,-20 46.9922,-39.0078 61.9922,-43.0078 19,-5 25,-11.0078 20,-23.0078 -5,-15 -3.9844,-14.9883 11.0156,-2.9883 9,7 13.9922,16.9922 11.9922,21.9922 -3,5 3,13.9961 15,20.9961 11,7 20,19.0156 20,26.0156 0,7 7.9922,15.9844 16.9922,18.9844 9,4 36,26.0039 60,49.0039 24,24 60.0156,50.9961 81.0156,60.9961 20,9 38.9922,20.0078 41.9922,23.0078 3,4 13.0078,9.0078 23.0078,13.0078 9,3 16.9922,12.9922 16.9922,21.9922 0,10 10.0078,15 33.0078,15 17,0 53.9961,11 80.9961,25 27,13 63.9883,26.9961 82.9883,30.9961 22,4 32.0039,11.0039 29.0039,19.0039 -6,17 20.0039,40 29.0039,25 3,-5 0.996,-10 -4.0039,-10 -6,0 -10.9961,-4.9961 -10.9961,-10.9961 0,-12 37.0078,-2.9961 58.0078,14.0039 8,6 39,11.9844 70,13.9844 31,2 74.9844,10.0078 98.9844,18.0078 24,8 64.0078,15 88.0078,15 25,0 45,4.9961 45,10.9961 0,6 5.0078,7.0117 13.0078,2.0117 17,-11 219.9844,-10.0039 228.9844,0.996 3,5 14.0078,1.9883 23.0078,-7.0117 13,-13 20.9961,-14.9961 35.9961,-5.9961 15,7 24.0039,7.0039 34.0039,-0.996 10,-9 19,-8 35,0 18,9 24.0039,8.0039 34.0039,-5.9961 7,-9 16.9883,-13.9961 22.9883,-10.9961 5,3 28.0156,-1.0039 51.0156,-9.0039 24,-8 59.9922,-16.0078 81.9922,-18.0078 22,-2 44.9922,-8.0039 51.9922,-14.0039 7,-5 33.0078,-15.9922 58.0078,-21.9922 57,-16 160,-62.9922 160,-71.9922 0,-5 9.9922,-8.0078 21.9922,-8.0078 12,0 29.0117,-6.0039 37.0117,-14.0039 9,-7 42.9961,-27.9961 75.9961,-45.9961 33,-17 64.0078,-37.9961 68.0078,-45.9961 4,-8 14.9883,-14.0039 22.9883,-14.0039 15,0 56.0117,-31.9922 92.0117,-71.9922 9,-10 20.9922,-18.0078 26.9922,-18.0078 6,0 44.9922,-36 86.9922,-80 42,-44 80.0156,-80 86.0156,-80 5,0 12.9961,-7.9922 15.9961,-16.9922 11,-30 31.9883,-63.0156 62.9883,-96.0156 16,-18 38.0078,-48.9844 48.0078,-68.9844 11,-21 22.9922,-38.0078 26.9922,-38.0078 5,0 8.0078,-9.0039 8.0078,-19.0039 0,-19 27.9922,-80.9961 41.9922,-90.9961 4,-3 9.0117,-25.0039 12.0117,-49.0039 3,-23 9.0039,-48.0039 14.0039,-54.0039 32,-41 29.9922,-283.9922 -3.0078,-376.9922 -8,-24 -15,-54.0078 -15,-68.0078 0,-13 -8.9961,-39.9844 -20.9961,-58.9844 -12,-18 -18.9961,-40.0117 -15.9961,-47.0117 3,-8 -0.01,-17.0039 -8.0078,-19.0039 -7,-3 -16,-20.9844 -20,-38.9844 -8,-37 -92.9961,-201.0156 -105.9961,-206.0156 -5,-2 -9.0039,-9.9883 -9.0039,-17.9883 0,-13 -43.9961,-85.0039 -85.9961,-139.0039 -8,-11 -32.0117,-42.9922 -52.0117,-71.9922 -70,-98 -122.9922,-163.0078 -131.9922,-163.0078 -6,0 -10,-5 -10,-10 0,-12 -30,-47.0078 -75,-88.0078 -16,-14 -61.9961,-57.9922 -100.9961,-96.9922 -39,-38 -107.0039,-101 -149.0039,-140 -142,-128 -275,-258 -275,-270 0,-7 -20,-31.0039 -45,-54.0039 -25,-23 -45,-48 -45,-55 0,-8 -7,-18.9961 -15,-25.9961 -26,-21 -65.9922,-111.9922 -71.9922,-161.9922 -7,-57 26.9961,-175.0156 60.9961,-211.0156 12,-13 21.0039,-27.9883 19.0039,-32.9883 -2,-6 10.9883,-26 27.9883,-45 17,-18 41.0039,-50.0039 54.0039,-69.0039 13,-19 39.0039,-51.0039 59.0039,-69.0039 20,-19 35.9961,-39.0039 35.9961,-44.0039 0,-11 92,-111.9961 100,-110.9961 3,1 11.0039,-6.9883 19.0039,-17.9883 7,-11 23.9922,-23.0078 36.9922,-28.0078 13,-5 24.0039,-16.9922 24.0039,-26.9922 1,-10 18.0039,-31.0078 39.0039,-48.0078 21,-16 52.9961,-50.0078 70.9961,-73.0078 51,-66 285,-301.9922 300,-301.9922 7,0 11.0078,-2.9961 8.0078,-5.9961 -7,-7 240.9922,-252.0039 261.9922,-259.0039 9,-3 22.9922,-16.9922 31.9922,-31.9922 17,-28 55.0039,-67 299.0038,-304.99996 158,-153 216.012,-208.0078 222.012,-208.0078 3,0 34,-27.9922 70,-61.9922 71,-70 95.996,-91.0117 125.996,-107.0117 11,-6 21.996,-20 25.996,-30 3,-11 20.008,-29 38.008,-40 18,-12 46.996,-31.9961 65.996,-45.9961 54,-40 131.9879,-32 152.9879,15 8,18 22.004,30.0039 39.004,34.0039 17,3 30,13.9883 35,27.9883 12,41 26.004,37.0078 84.004,-21.9922 49,-49 58.004,-64.9961 64.004,-105.9961 5,-37 2.004,-51.0117 -10.996,-67.0117 -10,-10 -17,-20.9883 -15,-22.9883 8,-13 0,-22.0117 -15,-17.0117 -13,5 -15,2.0039 -10,-10.9961 5,-13 2.988,-16.9883 -7.012,-12.9883 -10,4 -16,-4.0117 -20,-27.011699 -4,-22 -19.988,-43.9922 -47.988,-66.99219 -30.625,-23.6250001 -45.938,-31.16993009 -72.735,-31.34766009 z M 5983.5519,744.18284 c -2.5313,-0.0937 -4.2188,2.9141 -4.2188,8.1641 0,7 2.9922,9.9922 6.9922,6.9922 3,-4 3,-9.9844 0,-13.9844 -1,-0.75 -1.9297,-1.1406 -2.7734,-1.1719 z m -262.0704,59.2774 c 5.4668,-0.2227 7.8516,4.5117 7.8516,13.8867 0,8 -4,15 -10,15 -5,0 -10,8.0078 -10,18.0078 0,10 -4.9922,23 -11.9922,30 -7,7 -9,11.9922 -5,11.9922 3,0 -11.0078,34 -33.0078,75 -22,41.99996 -40,84.00776 -40,93.00776 0,10 -4.9922,23 -11.9922,30 -7,7 -8.0039,11.9922 -4.0039,11.9922 5,0 -3.0078,8.9961 -18.0078,20.9961 -14,11 -25.9961,29 -25.9961,40 0,10 -4.9961,19.0039 -10.9961,19.0039 -5,0 -7.0039,4 -4.0039,10 3,5 -1.0039,19.9922 -9.0039,31.9922 -9,12 -15.9961,32.0039 -15.9961,44.0039 0,12 -4.0078,23.9961 -8.0078,25.9961 -10,4 -69.9922,126.0078 -86.9922,178.0078 -1,3 -10.9922,25 -21.9922,50 -57,124 -73.0078,163.9961 -73.0078,175.9961 0,7 -6.9961,20.0078 -15.9961,28.0078 -9,10 -11.0039,15.9961 -4.0039,15.9961 6,0 1.9961,11.9961 -9.0039,25.9961 -11,15 -18.9961,30.0039 -15.9961,34.0039 3,4 -2,13 -10,20 -8,7 -15,19.0078 -15,28.0078 0,28 -24.9922,87 -41.9922,100 -9,7 -15.0117,18.9961 -12.0117,25.9961 3,8 1,16.9961 -5,20.9961 -6,3 -10.9961,21.0078 -10.9961,38.0078 0,18 -9,42.9922 -20,56.9922 -11,14 -20,31.9961 -20,40.9961 0,9 -2.9922,19.0078 -6.9922,23.0078 -4,3 -8.0039,12.9961 -9.0039,20.9961 -1,8 -16.0078,43.0078 -33.0078,78.0078 -17,35 -30.9961,71 -30.9961,80 0,9 -4.0039,17.9922 -9.0039,21.9922 -5,3 -14.9922,22.0078 -21.9922,43.0078 -6,20 -15.9961,39.9883 -20.9961,42.9883 -6,4 -12.0039,26 -14.0039,50 -7,78 -9.0117,84.0039 -27.0117,104.0039 -11,11 -22.9883,31.0039 -27.9883,44.0039 -6,14 -15.0039,20.9922 -24.0039,16.9922 -8,-3 -17,-0.996 -20,4.0039 -4,6 -18.0078,10 -33.0078,10 -15,0 -36.9883,7 -47.9883,15 -12,8 -23.9961,12 -25.9961,10 -3,-3 -22.0078,2 -43.0078,10 -20,9 -43.9922,13.9961 -51.9922,10.9961 -8,-3 -11.0078,-0.996 -8.0078,4.0039 3,6 -3.9922,10 -16.9922,10 -13,0 -33,7 -45,15 -12,9 -26,15.0039 -30,14.0039 -4,-1 -11,0 -15,0.996 -5,1 -11,3 -15,5 -5,1 -21.0156,7.0078 -36.0156,13.0078 -16,7 -32.9883,11.9922 -37.9883,11.9922 -6,0 -28.9961,9 -50.9961,20 -23,11 -49.0039,20 -59.0039,20 -9,0 -22.0078,6.0078 -28.0078,13.0078 -6,8 -20.9883,12.9922 -32.9883,11.9922 -13,-1 -29.0156,3.9922 -36.0156,11.9922 -7,7 -24.9883,13.0078 -37.9883,13.0078 -14,0 -41.0117,8.0039 -62.0117,19.0039 -20,10 -53.9844,21 -73.9844,25 -38,7 -101.0078,34.9922 -83.0078,36.9922 16,2 -56.9961,21.0117 -85.9961,22.0117 -14,1 -33.0078,10 -43.0078,20 -10,9 -21.9922,14.9922 -26.9922,11.9922 -5,-4 -9.0039,-1.9922 -9.0039,3.0078 0,6 -16.9922,10 -36.9922,10 -52,-1 -92.0039,10.9883 -114.0039,32.9883 -11,11 -30.0078,19.0039 -43.0078,19.0039 -14,0 -27.9961,4.9961 -30.9961,10.9961 -4,6 -20.0078,7.0078 -38.0078,3.0078 -18,-3 -29,-3.0039 -25,0.996 11,11 -10.9961,35 -30.9961,35 -9,0 -29.0039,7 -44.0039,15 -15,8 -47.9922,15.9922 -71.9922,16.9922 -28,2 -45,8.0156 -45,16.0156 0,17 -17.0039,14.9922 -24.0039,-3.0078 -3,-8 -1.9883,-15 2.0117,-15 4,0 14.9844,-12.0078 23.9844,-28.0078 9,-15 58,-70.9844 110,-123.9844 51,-52.9998 127.0078,-133.0076 168.0078,-178.0076 41,-45 88.9922,-96.9961 106.9922,-115.9961 17,-19 36.0117,-34.0039 42.0117,-34.0039 6,0 10.9961,-4 10.9961,-10 0,-10 51,-67.0039 160,-179.0039 36,-37 81,-86.0039 100,-109.0039 19,-23 43.0078,-44.9883 53.0078,-47.9883 9,-3 16.9922,-11.0117 16.9922,-17.0117 0,-13 73.0078,-90.9922 113.0078,-121.9922 15,-11 26.9922,-23.0078 26.9922,-28.0078 0,-4 18,-24.9922 40,-46.9922 22,-22 40,-44.0039 40,-49.0039 0,-5 9,-12.9961 20,-15.9961 11,-3 20,-12 20,-20 0,-8 9,-16 20,-20 11,-3 28.9922,-21.0078 41.9922,-38.0078 27,-40 56.0117,-68.9922 82.0117,-81.9922 12,-6 25.9922,-21.0078 31.9922,-33.0078 10,-21 144.0039,-156.9883 189.0039,-192.9883 11,-8 29,-27.0117 40,-42.0117 11,-15 24.9922,-26.9922 31.9922,-26.9922 7,0 13.0078,-4.0039 13.0078,-9.0039 0,-7 83.0078,-91 228.0078,-230 29,-28 58.9922,-50.9961 66.9922,-50.9961 7,0 16.0039,-11 19.0039,-25 4,-14 12,-25 20,-25 7,0 32,-20 55,-45 23,-25 43.9883,-45 47.9883,-45 3,0 27.0078,-20.9922 53.0078,-46.9922 74,-75 115.0078,-113.0078 123.0078,-113.0078 4,0 20,-12.99996 35,-29.99996 16,-16 33.9961,-30 40.9961,-30 6,0 10.9961,-4 10.9961,-10 0,-10 36,-50 45,-50 3,0 25.9961,-20 50.9961,-45 29.375,-29.375 47.041,-43.5156 56.1523,-43.8867 z m -307.9296,80.7226 c 0.844,0.03 1.7734,0.422 2.7734,1.1719 3,4 3,9.9844 0,13.9844 -4,3 -6.9922,0.008 -6.9922,-6.9922 0,-5.25 1.6875,-8.2578 4.2188,-8.1641 z m -289.5313,82.4219 c -3.5625,-0.08 -6.6914,0.734 -8.6914,2.7344 -12,12 -4.9961,23.0078 14.0039,23.0078 11,0 20,-4.0039 20,-9.0039 0,-8.25 -14.625,-16.5039 -25.3125,-16.7383 z M 10461.677,2742.9133 c -8.285,0.467 -14.84,5.2461 -18.34,14.4336 -4,8 -15,15 -25,15 -11,0 -22,7 -25,15 -4,8 -12.996,15 -20.996,15 -22,0 -45.012,66.0039 -37.012,104.0039 4,17 8.004,44.9922 9.004,61.9922 4,59 21,70.0078 115,73.0078 47,2 87.004,4.9922 89.004,6.9922 4,3 14.004,2.0078 79.004,-11.9922 15,-3 73,-8 130,-10 105,-4 141.992,-14.0078 141.992,-38.0078 0,-8 6.004,-16.0039 14.004,-19.0039 20,-8 7.992,-47.9922 -18.008,-66.9922 -14,-10 -45.992,-15 -96.992,-15 -61,0 -81.012,-4.0078 -97.012,-18.0078 -12,-11 -25.996,-15.9922 -30.996,-11.9922 -6,3 -10.996,1.9961 -10.996,-4.0039 0,-6 -7,-8 -15,-5 -8,4 -15,1 -15,-5 0,-6 -7,-10.9961 -15,-10.9961 -8,0 -21.996,-11 -30.996,-25 -10,-15 -26,-25 -40,-25 -13,0 -33.004,-9 -44.004,-20 -13.5,-13.5 -27.004,-20.0334 -37.656,-19.4336 z m -2422.3439,109.4336 c 6,0 10,5 10,10 0,6 -4,10 -10,10 -5,0 -10,-4 -10,-10 0,-5 5,-10 10,-10 z m 161.875,181.875 c 0.625,-0.625 2.6328,0.129 6.1328,2.1289 12,7 15.9883,15.9961 7.9883,15.9961 -3,0 -7.9922,-4.9922 -11.9922,-11.9922 -2,-3.5 -2.7539,-5.5078 -2.1289,-6.1328 z m 348.125,468.8672 c -2.5,0 -4.9922,0.766 -6.9922,2.2656 -3,4 -0.01,6.9922 6.9922,6.9922 7,0 9.9922,-2.9922 6.9922,-6.9922 -2,-1.5 -4.4922,-2.2656 -6.9922,-2.2656 z m 3481.1519,174.2383 c -22.07,0.996 -36.523,9.5117 -52.148,27.0117 -9,10 -21.012,18.0078 -27.012,18.0078 -6,0 -8.996,6.0039 -5.996,14.0039 3,8 -4.988,21 -17.988,30 -12,9 -19.004,15.9961 -14.004,15.9961 5,0 2.996,7 -4.004,15 -9,10 -10.004,28.9922 -4.004,61.9922 4,27 7,66.0078 5,88.0078 -4,56 -43.992,176 -81.992,245 -11,19 -37.004,74 -59.004,125 -10,22 -21,56 -25,75 -4,19 -13,39 -20,45 -7,5 -22.008,36.0039 -33.008,69.0039 -10,32 -31,70.9961 -45,85.9961 -19,20 -23,30.0078 -15,38.0078 9,9 7.012,17.9844 -7.988,33.9844 -22,25 -49,80.0078 -60,123.0078 -5,22 -37.012,91.0078 -47.012,103.0078 -6,7 -11.984,30 -13.984,50 -2,20 -8.004,40.9922 -14.004,46.9922 -5,5 -9.004,16.9961 -9.004,25.9961 0,9 -7,22.0039 -15,29.0039 -25,21 -15.992,92 13.008,105 12,5 21.992,12.9922 21.992,16.9922 0,22 20,4.0078 30,-26.9922 6,-19 19.004,-40.9922 29.004,-46.9922 9,-7 22.996,-29.0078 30.996,-48.0078 8,-19 19.992,-39.0078 26.992,-43.0078 7,-5 11.008,-11.9883 8.008,-17.9883 -4,-5 -1,-9.0039 4.004,-9.0039 6,0 10.996,-11.0039 10.996,-24.0039 0,-14 4,-27.9961 10,-30.9961 10,-6 90,-165.0039 90,-179.0039 0,-13 93.008,-214 118.008,-255 1,-3 19.992,6.0078 41.992,18.0078 l 40,21.9922 30.996,-30 c 17,-18 41,-30.9961 55,-30.9961 13,0 25,-5.9922 25,-11.9922 4,-41 20,-78.0078 35,-78.0078 7,0 11.004,-5.9922 9.004,-11.9922 -3,-7 5.996,-26.0078 20.996,-43.0078 67,-79 82.996,-95 95.996,-95 10,0 9.008,-3 -1.992,-10 -8,-5 -10.004,-10 -4.004,-10 14,0 75.004,-50.9922 129.004,-106.9922 22,-24 44.996,-43.0078 50.996,-43.0078 5,0 20.996,-11 35.996,-25 15,-14 32.008,-25 38.008,-25 5,0 10,-4.0039 10,-9.0039 0,-5 17.008,-14.9961 38.008,-20.9961 20,-7 40.992,-15.9961 46.992,-20.9961 5,-5 18,-9.0039 30,-9.0039 12,0 26.008,-4.9922 33.008,-11.9922 7,-7 39.984,-11 83.984,-10 125,2 145,12 155,75 3,22 14.004,47 24.004,55 10,9 16.008,18.9844 13.008,23.9844 -3,5 -3.004,17.0156 1,26.0156 7,17 7.004,138.9922 -1,291.9922 -7,154 -7,199 0,345 7,137 9.992,152.9922 31.992,181.9922 13,17 24.004,38.0156 24.004,46.0156 0,8 9,21.9922 20,31.9922 11,10 17.996,20.0078 15.996,23.0078 -7,7 84.004,81.9922 99.004,81.9922 7,0 14.992,4.9961 16.992,10.9961 2,6 21.016,12.0039 41.016,14.0039 21,2 48,6.9961 60,10.9961 29,9 147.992,6 211.992,-5 100,-19 257.008,-67.9883 263.008,-82.9883 2,-4 7.988,-6.0117 12.988,-2.0117 5,3 9.004,0 9.004,-5 0,-6 8.008,-10.9961 18.008,-10.9961 9,0 25.996,-7 35.996,-15 11,-8 27.988,-15 37.988,-15 10,0 18.008,-4.0039 18.008,-9.0039 0,-5 15.008,-13.9961 33.008,-20.9961 17,-8 39.996,-20.0039 50.996,-29.0039 10,-9 19,-14.9883 20,-12.9883 1,4 35.988,-7.0039 57.988,-19.0039 10,-5 25.008,-9.0039 33.008,-9.0039 9,0 15.008,-6.9922 13.008,-16.9922 -2,-10 5.988,-19.0078 22.988,-23.0078 14,-4 37.012,-19.0039 52.012,-34.0039 14,-14 31.996,-23 40.996,-20 9,3 16.996,-2 20.996,-15 3,-12 13,-20.9961 20,-20.9961 8,0 19,-9 25,-20 6,-11 14.008,-19.0039 18.008,-19.0039 18,3 31.992,-1.9961 31.992,-10.9961 0,-13 32.008,-45.0078 53.008,-53.0078 9,-3 16.992,-14.9961 16.992,-25.9961 0,-12 9,-21 25,-25 14,-4 28.992,-14.0039 31.992,-24.0039 4,-9 26,-36 50,-60 24,-24 43.008,-48.9922 43.008,-56.9922 0,-17 -36.992,-40.0078 -76.992,-48.0078 -29,-6 -37,0.01 -105,68.0078 -40,42 -81,77.9961 -90,80.9961 -10,3 -18.008,12 -18.008,20 0,12 -37.992,35.0078 -61.992,38.0078 -4,1 -15.008,11.0039 -23.008,24.0039 -9,12 -24.004,21.9922 -34.004,21.9922 -11,0 -40.992,15.0078 -66.992,33.0078 -27,18 -69.004,43.9883 -94.004,57.9883 -25,13 -47.992,29.0039 -51.992,34.0039 -4,6 -8.008,5.9922 -8.008,1.9922 0,-5 -11.996,1.0117 -25.996,12.0117 -15,12 -34.008,20.9961 -43.008,20.9961 -10,0 -20.992,4.0039 -26.992,9.0039 -5,5 -36.004,15.9961 -69.004,25.9961 -33,9 -69,22.0039 -80,29.0039 -46,28 -173,56.9922 -270,61.9922 -65,3 -86,0.01 -120,-16.9922 -55,-28 -112.004,-94.0078 -124.004,-143.0078 -5,-23 -14.996,-60.9961 -20.996,-85.9961 -17,-66 -3.008,-360 16.992,-360 12,0 12,-2 0,-15 -12,-11 -12.996,-23.0039 -5.996,-54.0039 7,-32 7.004,-144.9961 -1,-325.9961 -1,-11 -4.996,-22 -10.996,-25 -5,-4 -12.004,-17 -14.004,-30 -2,-13 -8.008,-26.0039 -13.008,-29.0039 -5,-3 -16.992,-24.9883 -26.992,-47.9883 -10,-23 -21.992,-40.0117 -26.992,-37.0117 -4,3 -8.008,0 -8.008,-5 0,-6 -5.992,-10.9961 -11.992,-10.9961 -17,-1 -58.008,-35.0039 -58.008,-49.0039 0,-6 -5.992,-11.9883 -11.992,-12.9883 -7,0 -26.008,-3 -43.008,-5 -32,-4 -126.992,-6.0039 -171.992,-4.0039 -44,3 -117.004,22.9883 -134.004,37.9883 -8,7 -21.996,13.0078 -30.996,13.0078 -8,0 -27.016,11.0039 -41.016,24.0039 -27,25 -40,33 -120,75 -25,13 -48,32.9883 -50,42.9883 -3,10 -13.992,18.0078 -26.992,18.0078 -13,0 -23.992,8 -26.992,20 -3,11 -11.004,20 -19.004,20 -7,0 -36.996,22.9961 -65.996,50.9961 -94,90 -127,102.0117 -90,32.0117 11,-21 36.992,-74.0078 56.992,-118.0078 20,-44 40.992,-89.9961 46.992,-100.9961 10,-22 2.004,-84.0039 -10.996,-84.0039 -4,0 -13.004,-11.0039 -19.004,-24.0039 -8,-18 -22.996,-27 -60.996,-35 -20.625,-4.5 -36.601,-6.6133 -49.844,-6.0156 z m -1522.148,165.0195 c -20,0 -42.004,7 -49.004,15 -7,8 -22.004,15 -34.004,15 -12,0 -34.996,14 -50.996,30 -29,31 -29.996,32.0078 -30.996,153.0078 0,73 -5.012,130.9844 -12.012,143.9844 -7,12 -8.996,29.0117 -5.996,37.0117 3,9 2.012,15.9961 -2.988,15.9961 -8,0 -53.004,128 -59.004,165 0,6 -4.012,17 -7.012,25 -13,32 -26.992,96.0078 -26.992,123.0078 0,15 -4,26.9922 -10,26.9922 -5,0 -14,19.0078 -20,43.0078 -6,23 -17.992,66.9922 -26.992,96.9922 -9,30 -18.004,66 -19.004,80 -5,42 -20.004,106 -29.004,120 -19,30 -34.992,144.0039 -41.992,284.0039 -6,135 -5.004,149.9922 10.996,161.9922 18,13 61.992,10.0078 81.992,-6.9922 6,-5 14.008,-33.0117 18.008,-62.0117 9,-70 28.004,-150.9883 39.004,-157.9883 4,-3 11.992,-32 16.992,-65 17,-120 72,-329.0039 115,-439.0039 13,-33 26.996,-78 30.996,-100 3,-22 12.008,-49 18.008,-60 7,-11 18.996,-49 25.996,-85 7,-36 18,-72 25,-80 17,-21 45.004,-105 49.004,-145 1,-5 8.988,-23.9961 17.988,-40.9961 10,-17 15.012,-34.0117 12.012,-37.0117 -3,-2 6,-14 20,-25 19,-14 25.996,-28.9883 25.996,-52.9883 0,-19 4.996,-51.0117 10.996,-72.0117 10,-36 9.012,-39.9883 -22.988,-72.9883 -25,-26 -41.004,-34.0039 -69.004,-34.0039 z m -8492.6758,693.6523 c 1.1719,0.1563 2.4219,0.5977 3.6719,1.3477 6,3 10,7.9961 10,10.9961 0,2 -4,4.0039 -10,4.0039 -5,0 -10,-4.9961 -10,-10.9961 0,-3.75 2.8125,-5.8203 6.3281,-5.3516 z m 2707.9297,1149.1797 c 1.8457,-0.04 4.3594,1.8008 7.7344,5.1758 9,9 9,14.9844 0,23.9844 -9,9 -11.9922,7.0078 -11.9922,-11.9922 0,-11.875 1.1816,-17.1094 4.2578,-17.168 z m 109.961,109.0039 c 0.844,0.03 1.7734,0.422 2.7734,1.1719 3,4 3,9.9844 0,13.9844 -4,3 -6.9922,0.01 -6.9922,-6.9922 0,-5.25 1.6875,-8.2578 4.2188,-8.1641 z m -1581.7188,1911.543 c -6.25,-0.625 -12.5078,3.1211 -15.5078,11.6211 -5,10 0,15 14.0039,15 12,0 19.0117,-4.9922 17.0117,-11.9922 -3,-9 -9.2578,-14.0039 -15.5078,-14.6289 z m -1801.25,107.1289 c -5.25,0.5 -12.2578,4.4844 -19.2578,11.4844 -19,19 -13.9922,30.0078 8.0078,18.0078 11,-6 20,-15 20,-20 0,-7 -3.5,-9.9922 -8.75,-9.4922 z"
     id="path2"
     inkscape:connector-curvature="0" />
</svg>
